<svg version="1.1" xmlns="http://www.w3.org/2000/svg" xmlns:xlink="http://www.w3.org/1999/xlink" width="159" height="26" viewBox="0,0,256,41.86667"><g fill="#f5e5e4" fill-rule="nonzero" stroke="none" stroke-width="1" stroke-linecap="butt" stroke-linejoin="miter" stroke-miterlimit="10" stroke-dasharray="" stroke-dashoffset="0" font-family="none" font-weight="none" font-size="none" text-anchor="none" style="mix-blend-mode: normal"><g transform="translate(-50.71707,-1.27378) scale(1.61006,1.61006)"><path d="M80.7564,4.78263l0.2449,-1.59436c0.0417,-0.25014 -0.0313,-0.50031 -0.198,-0.69312c-0.1616,-0.19281 -0.4013,-0.30228 -0.6566,-0.30228h-9.6822c-0.4273,0 -0.7868,0.3074 -0.8546,0.7295l-2.6003,16.44083c-0.0365,0.2501 0.0313,0.5056 0.198,0.6984c0.1616,0.1928 0.4013,0.3074 0.6514,0.3074h2.2355c0.4274,0 0.7817,-0.3074 0.8547,-0.7295l1.0057,-6.3785h5.5394c0.4221,0 0.7816,-0.3074 0.8494,-0.7295l0.2293,-1.3913c0.0364,-0.2501 -0.0313,-0.5054 -0.1981,-0.6982c-0.1667,-0.198 -0.4064,-0.3076 -0.6618,-0.3076h-5.2267l0.6827,-4.61693h6.7275c0.4377,-0.00521 0.7973,-0.30754 0.8598,-0.73484zM131.507,10.27l-0.068,-0.0262c-0.599,-0.1824 -1.297,-0.28115 -2.063,-0.28115c-1.246,0 -2.194,0.50525 -2.814,1.50585c-0.605,0.9849 -0.918,2.095 -0.918,3.2935c0,0.7556 0.131,1.3912 0.391,1.8862c0.271,0.5107 0.657,0.7766 1.147,0.7766c0.547,0 1.177,-0.3545 1.881,-1.0476c0.688,-0.6774 1.318,-1.4901 1.86,-2.4073zM135.572,8.37847l-1.777,11.27653c-0.068,0.4273 -0.428,0.7298 -0.855,0.7298h-1.318c-0.235,0 -0.459,-0.094 -0.621,-0.2659c-0.161,-0.1668 -0.25,-0.396 -0.239,-0.6305l0.052,-1.3967l-0.156,0.172c-0.006,0.0052 -0.511,0.568 -1.095,1.0214c-0.87,0.6774 -1.834,1.0422 -1.938,1.0839c-0.537,0.198 -1.115,0.2969 -1.72,0.2969c-1.329,0 -2.319,-0.4742 -3.043,-1.4434c-0.719,-0.9641 -1.079,-2.2458 -1.079,-3.7987c0,-0.8077 0.083,-1.605 0.24,-2.3658c0.161,-0.7608 0.443,-1.5321 0.844,-2.2982c0.401,-0.76078 0.907,-1.43827 1.501,-2.00628c0.589,-0.56801 1.37,-1.03187 2.313,-1.38623c0.944,-0.34914 2.022,-0.52619 3.195,-0.52619c1.443,0 3.127,0.18242 5.003,0.5524c0.463,0.0938 0.766,0.52118 0.693,0.98497zM145.014,6.97138c-0.886,0.20844 -1.751,0.75039 -2.324,1.17249c-0.651,0.47941 -1.584,1.49564 -1.6,1.50606l-0.156,0.17201l0.083,-1.79283c0.011,-0.2345 -0.073,-0.46899 -0.24,-0.64095c-0.161,-0.17197 -0.39,-0.26564 -0.625,-0.26564h-1.329c-0.427,0 -0.787,0.30219 -0.854,0.7295l-1.819,11.53198c-0.036,0.2502 0.036,0.5003 0.198,0.6932c0.162,0.1928 0.401,0.3022 0.657,0.3022h2.053c0.427,0 0.787,-0.3074 0.854,-0.7295l0.959,-6.1387c0.547,-0.7713 1.256,-1.4331 2.116,-1.9751c0.641,-0.4012 1.297,-0.6617 1.954,-0.7607c0.36,-0.0574 0.646,-0.3333 0.714,-0.6929l0.396,-2.11064c0.057,-0.28661 -0.036,-0.57843 -0.25,-0.78166c-0.198,-0.20323 -0.5,-0.28136 -0.787,-0.21882zM103.815,12.7453c0,-0.7608 -0.135,-1.3966 -0.396,-1.8865c-0.271,-0.5107 -0.651,-0.7712 -1.141,-0.7712c-0.547,0 -1.183,0.3493 -1.881,1.0475c-0.693,0.6827 -1.319,1.4902 -1.866,2.4074l-0.5833,3.6948l0.0733,0.0208c0.599,0.1876 1.292,0.2812 2.063,0.2812c1.251,0 2.199,-0.5053 2.814,-1.5058c0.605,-0.9797 0.917,-2.0845 0.917,-3.2882zM106.593,8.28966c0.714,0.96405 1.079,2.24614 1.079,3.79384c0,1.0213 -0.141,2.0217 -0.417,2.9701c-0.277,0.9484 -0.714,1.8708 -1.303,2.7463c-0.584,0.865 -1.428,1.5737 -2.512,2.0948c-1.089,0.5263 -2.381,0.7975 -3.835,0.7975c-0.573,0 -1.298,-0.0573 -2.1524,-0.1771l-0.0885,-0.0105l-0.1564,1.5633c-0.0052,0.0157 -0.0052,0.0311 -0.0052,0.052l-0.4533,2.7462c-0.073,0.4169 -0.4274,0.7193 -0.8495,0.7193h-2.0375c-0.2553,0 -0.4898,-0.1095 -0.6514,-0.3023c-0.1667,-0.1928 -0.2397,-0.4431 -0.198,-0.6984l2.6577,-16.73268c0.0677,-0.4221 0.4273,-0.72441 0.8546,-0.72441h1.3184c0.2345,0 0.4635,0.0938 0.6255,0.26055c0.161,0.17196 0.25,0.40123 0.24,0.63052l-0.053,1.41752l0.157,-0.19796c0.015,-0.01563 1.271,-1.54254 3.194,-2.14702c0.532,-0.16675 1.042,-0.25012 1.558,-0.25012c1.308,0.00521 2.304,0.47409 3.028,1.44856zM154.133,7.12252h-1.605l0.355,-2.29282c0.036,-0.25013 -0.037,-0.50551 -0.198,-0.69311c-0.162,-0.19281 -0.407,-0.30229 -0.657,-0.30229h-1.621c-0.38,0 -0.719,0.25011 -0.828,0.62009l-0.787,2.66813h-0.886c-0.427,0 -0.781,0.30231 -0.849,0.72441l-0.203,1.24017c-0.037,0.25013 0.026,0.50539 0.198,0.6982c0.161,0.19281 0.401,0.3023 0.656,0.3023h0.537l-0.959,6.1385c-0.068,0.3856 -0.104,0.787 -0.104,1.2091c0,1.0891 0.286,1.8812 0.881,2.4231c0.583,0.5316 1.474,0.8076 2.657,0.8076c0.709,0 1.709,-0.2969 1.829,-0.3386c0.094,-0.0365 0.271,-0.0937 0.292,-0.1041c0.037,-0.0156 0.073,-0.0314 0.104,-0.0471c0.25,-0.1355 0.412,-0.3803 0.443,-0.6564l0.151,-1.2715c0.026,-0.2658 -0.067,-0.5369 -0.265,-0.7193c-0.058,-0.0521 -0.115,-0.0988 -0.183,-0.1405c-0.047,-0.0208 -0.088,-0.0419 -0.135,-0.0575c-0.032,-0.0104 -0.11,-0.0261 -0.417,-0.0209c-0.073,0 -0.151,0.0054 -0.229,0.0054c-0.141,0 -0.23,-0.0054 -0.277,-0.0158c-0.12,-0.0208 -0.417,-0.0833 -0.568,-0.2188c-0.073,-0.0625 -0.297,-0.2605 -0.297,-0.9901c0,-0.0729 0.006,-0.1823 0.026,-0.3386l0.881,-5.6592h1.819c0.411,0 0.771,-0.29183 0.849,-0.69309l0.24,-1.24042c0.052,-0.25535 -0.016,-0.51571 -0.183,-0.71373c-0.161,-0.20844 -0.406,-0.32314 -0.667,-0.32314zM121.47,7.47162c-0.161,-0.21887 -0.422,-0.3491 -0.693,-0.3491h-2.147c-0.38,0 -0.719,0.25543 -0.828,0.61499c-0.183,0.62533 -0.526,1.34427 -1.032,2.14677c-0.703,1.13082 -1.282,1.82922 -1.772,2.14192l-0.078,0.0364c-0.172,0.0886 -0.443,0.2187 -1.391,0.3855l-0.12,0.0208l1.485,-9.28063c0.037,-0.25014 -0.031,-0.50552 -0.198,-0.69312c-0.161,-0.19281 -0.401,-0.30762 -0.651,-0.30762h-2.053c-0.428,0 -0.787,0.30765 -0.855,0.72975l-2.611,16.47212c-0.042,0.2501 0.031,0.5003 0.193,0.6931c0.162,0.1928 0.406,0.3074 0.657,0.3074h2.053c0.427,0 0.787,-0.3074 0.854,-0.7295l0.673,-4.2941h1.287l1.771,4.4765c0.131,0.3335 0.449,0.5471 0.803,0.5471h2.23c0.474,0 0.865,-0.3857 0.865,-0.8652c0,-0.1146 -0.026,-0.2343 -0.073,-0.3437l-2.027,-5.2268l0.042,-0.0364c0.839,-0.7556 1.699,-1.8292 2.559,-3.1788c0.557,-0.87549 0.953,-1.71971 1.188,-2.49615c0.083,-0.27098 0.031,-0.55237 -0.131,-0.77123zM91.7413,5.98641c0.8546,0 1.4956,-0.21887 1.902,-0.66181c0.4117,-0.44815 0.615,-1.0004 0.615,-1.69869c0,-0.54195 -0.1512,-0.94833 -0.4586,-1.2193c-0.3023,-0.27098 -0.7712,-0.40661 -1.3966,-0.40661c-0.8546,0 -1.4956,0.22409 -1.8968,0.66182c-0.4169,0.44815 -0.6201,1.00574 -0.6201,1.70402c0,0.54195 0.1563,0.94846 0.4586,1.21422c0.3126,0.27619 0.766,0.40635 1.3965,0.40635zM92.4344,7.12252h-2.0323c-0.4273,0 -0.7817,0.30231 -0.8546,0.72441l-1.8187,11.53707c-0.0365,0.2502 0.0313,0.5056 0.198,0.6932c0.1616,0.1928 0.4013,0.3022 0.6514,0.3022h2.0323c0.4273,0 0.7817,-0.3074 0.8546,-0.7295l1.8187,-11.53199c0.0365,-0.25013 -0.0313,-0.50551 -0.198,-0.69311c-0.1616,-0.1876 -0.3961,-0.30228 -0.6514,-0.30228zM86.5563,2.49515c0.1616,0.19281 0.2397,0.44298 0.198,0.69312l-2.001,12.76713c-0.0209,0.2188 -0.0261,0.3541 -0.0261,0.4427c0,0.4273 0.0834,0.7244 0.2449,0.8756c0.1512,0.1407 0.4847,0.2188 0.542,0.2292c0.1824,0.0261 0.3543,0.12 0.4846,0.2555c0.172,0.1824 0.2606,0.4323 0.2397,0.6824l-0.1146,1.1465c-0.0261,0.245 -0.1303,0.4481 -0.2814,0.5575c-0.1407,0.0938 -0.3127,0.1826 -0.5315,0.2659c-0.2189,0.0834 -0.8338,0.2606 -1.2611,0.2606c-1.0787,0 -1.9125,-0.2502 -2.4805,-0.7453c-0.5628,-0.4898 -0.8494,-1.2038 -0.8494,-2.1261c0,-0.2502 0.0261,-0.5261 0.0782,-0.8232c0.0156,-0.125 2.173,-13.89787 2.199,-14.04899c0.0678,-0.42209 0.4274,-0.72975 0.8547,-0.72975h2.0531c0.2502,-0.00521 0.4847,0.10438 0.6514,0.29719z"></path></g></g></svg>